<?xml version="1.0" encoding="utf-8"?>
<!-- Generator: Adobe Illustrator 16.0.0, SVG Export Plug-In . SVG Version: 6.00 Build 0)  -->
<!DOCTYPE svg PUBLIC "-//W3C//DTD SVG 1.1//EN" "http://www.w3.org/Graphics/SVG/1.1/DTD/svg11.dtd">
<svg version="1.1" id="Слой_1" xmlns="http://www.w3.org/2000/svg" xmlns:xlink="http://www.w3.org/1999/xlink" x="0px" y="0px"
	 width="90px" height="65px" viewBox="0 0 90 65" enable-background="new 0 0 90 65" xml:space="preserve">
<path d="M89.192,16.399c-0.233-2.503-0.584-5.083-1.43-7.425c-1.97-5.457-6.357-7.484-11.824-7.7C65.64,0.867,55.342,0.427,45.025,0
	c-10.304,0.425-20.602,0.869-30.9,1.268C9.54,1.446,5.445,2.775,3.226,7.087c-1.172,2.277-1.754,4.953-2.166,7.521
	c-1.318,8.229-1.138,16.548-0.869,24.835c0.162,4.987,0.705,9.993,1.513,14.916c0.888,5.406,4.883,8.94,10.212,9.33
	c7.133,0.521,14.277,1.034,21.425,1.172c14.209,0.272,28.422,0.225,42.606-0.888c2.884-0.227,5.7-0.61,8.114-2.549
	c3.389-2.719,4.386-6.498,4.88-10.52C90.355,39.417,90.264,27.905,89.192,16.399z M40,51.167H26v-38h14V51.167z M64,51.167H50v-38
	h14V51.167z"/>
</svg>
