<?xml version="1.0" encoding="utf-8"?>
<!-- Generator: Adobe Illustrator 16.0.0, SVG Export Plug-In . SVG Version: 6.00 Build 0)  -->
<!DOCTYPE svg PUBLIC "-//W3C//DTD SVG 1.1//EN" "http://www.w3.org/Graphics/SVG/1.1/DTD/svg11.dtd">
<svg version="1.1" id="Layer_1" xmlns="http://www.w3.org/2000/svg" xmlns:xlink="http://www.w3.org/1999/xlink" x="0px" y="0px"
	 width="74px" height="76px" viewBox="-0.75 6.938 74 76" enable-background="new -0.75 6.938 74 76" xml:space="preserve">
<path d="M45.731,48.507c-3.369,0-5.053,3.111-5.053,6.573c0,3.368,1.824,6.386,5.029,6.386c3.228,0,5.053-2.971,5.053-6.55
	C50.761,51.781,49.123,48.507,45.731,48.507z"/>
<path d="M71.883,40.889H18.886c-0.755,0-1.368,0.608-1.368,1.36v25.825c0,0.75,0.613,1.358,1.368,1.358h52.997
	c0.756,0,1.367-0.608,1.367-1.358V42.249C73.25,41.498,72.639,40.889,71.883,40.889z M34.528,60.74
	c-1.475,1.474-3.906,2.27-6.971,2.27c-1.45,0-2.667-0.07-3.696-0.188V47.313c1.24-0.187,2.713-0.327,4.328-0.327
	c2.923,0,5.005,0.678,6.386,1.965c1.402,1.286,2.222,3.111,2.222,5.661C36.797,57.185,36.001,59.29,34.528,60.74z M45.591,63.126
	c-4.164,0-7.088-3.228-7.088-7.999c0-5.006,3.111-8.281,7.322-8.281c4.304,0,7.087,3.299,7.087,7.977
	C52.912,60.249,49.614,63.126,45.591,63.126z M62.83,61.396c1.239,0,2.503-0.258,3.321-0.655l0.421,1.614
	c-0.748,0.374-2.245,0.749-4.163,0.749c-4.444,0-7.79-2.808-7.79-7.977c0-4.937,3.346-8.281,8.234-8.281
	c1.965,0,3.204,0.421,3.742,0.702l-0.491,1.66c-0.771-0.374-1.871-0.654-3.181-0.654c-3.696,0-6.152,2.362-6.152,6.503
	C56.771,58.916,58.994,61.396,62.83,61.396z"/>
<path d="M28.282,48.601c-1.053,0-1.848,0.093-2.386,0.21v12.444c0.515,0.094,1.263,0.117,2.058,0.117
	c4.351,0,6.714-2.433,6.714-6.69C34.691,50.963,32.587,48.601,28.282,48.601z"/>
<path fill-rule="evenodd" clip-rule="evenodd" d="M4.669,77.825c16.596,0,33.167,0,49.833,0c0-0.866,0-1.726,0-2.657
	c1.814,0,3.534,0,5.309,0c0,1.949,0.105,3.898-0.036,5.83c-0.1,1.343-1.293,2.169-2.73,2.17c-5.725,0.009-11.451,0.003-17.178,0.003
	c-12.249,0-24.498,0-36.748,0c-0.342,0-0.684,0.006-1.025-0.004c-1.754-0.057-2.8-1.072-2.826-2.835
	c-0.034-2.377-0.011-4.755-0.011-7.135c0.002-20.863,0.004-41.731,0.008-62.597c0-2.502,0.921-3.405,3.468-3.407
	c14.13-0.002,28.259,0.006,42.39-0.021c1.367-0.003,2.438,0.387,3.421,1.373c3.346,3.361,6.745,6.666,10.154,9.965
	c0.811,0.784,1.189,1.658,1.182,2.786c-0.027,4.529-0.012,9.06-0.012,13.589c0,0.28,0,0.559,0,0.913c-1.771,0-3.486,0-5.306,0
	c0-4.441,0-8.867,0-13.417c-0.662,0-1.222,0-1.781,0.001c-2.021,0.003-4.045,0.008-6.068,0.005c-1.773-0.001-2.24-0.458-2.24-2.197
	c-0.003-2.517-0.001-5.035-0.001-7.635c-13.275,0-26.5,0-39.803,0C4.669,34.277,4.669,56.026,4.669,77.825z"/>
</svg>
