<?xml version="1.0" encoding="utf-8"?>
<!-- Generator: Adobe Illustrator 16.0.0, SVG Export Plug-In . SVG Version: 6.00 Build 0)  -->
<!DOCTYPE svg PUBLIC "-//W3C//DTD SVG 1.1//EN" "http://www.w3.org/Graphics/SVG/1.1/DTD/svg11.dtd">
<svg version="1.1" id="Layer_1" xmlns="http://www.w3.org/2000/svg" xmlns:xlink="http://www.w3.org/1999/xlink" x="0px" y="0px"
	 width="74px" height="76px" viewBox="-0.75 6.938 74 76" enable-background="new -0.75 6.938 74 76" xml:space="preserve">
<path d="M44.977,48.601c-1.053,0-1.848,0.093-2.387,0.21v12.444c0.516,0.094,1.264,0.117,2.059,0.117
	c4.352,0,6.714-2.433,6.714-6.69C51.386,50.963,49.28,48.601,44.977,48.601z"/>
<path d="M71.883,40.889H18.886c-0.755,0-1.368,0.608-1.368,1.36v25.825c0,0.75,0.613,1.358,1.368,1.358h52.997
	c0.756,0,1.367-0.608,1.367-1.358V42.249C73.25,41.498,72.639,40.889,71.883,40.889z M36.603,54.963
	c-1.076,1.146-2.831,1.73-4.819,1.73c-0.607,0-1.169-0.023-1.637-0.14v6.315h-2.035V47.29c0.982-0.163,2.269-0.304,3.906-0.304
	c2.012,0,3.485,0.468,4.421,1.31c0.866,0.749,1.38,1.895,1.38,3.299C37.818,53.021,37.398,54.144,36.603,54.963z M51.222,60.74
	c-1.474,1.474-3.906,2.27-6.971,2.27c-1.45,0-2.667-0.07-3.696-0.188V47.313c1.24-0.187,2.714-0.327,4.328-0.327
	c2.924,0,5.006,0.678,6.386,1.965c1.403,1.286,2.223,3.111,2.223,5.661C53.491,57.185,52.695,59.29,51.222,60.74z M64.624,48.811
	h-6.456v5.24h5.965v1.684h-5.965v7.135h-2.035V47.104h8.491V48.811z"/>
<path d="M32.064,48.601c-0.889,0-1.567,0.069-1.918,0.163v6.129c0.444,0.117,1.006,0.164,1.684,0.164
	c2.457,0,3.953-1.193,3.953-3.369C35.783,49.606,34.311,48.601,32.064,48.601z"/>
<path fill-rule="evenodd" clip-rule="evenodd" d="M4.669,77.825c16.596,0,33.167,0,49.833,0c0-0.866,0-1.726,0-2.657
	c1.814,0,3.534,0,5.309,0c0,1.949,0.105,3.898-0.036,5.83c-0.1,1.343-1.293,2.169-2.73,2.17c-5.725,0.009-11.451,0.003-17.178,0.003
	c-12.249,0-24.498,0-36.748,0c-0.342,0-0.684,0.006-1.025-0.004c-1.754-0.057-2.8-1.072-2.826-2.835
	c-0.034-2.377-0.011-4.755-0.011-7.135c0.002-20.863,0.004-41.731,0.008-62.597c0-2.502,0.921-3.405,3.468-3.407
	c14.13-0.002,28.259,0.006,42.39-0.021c1.367-0.003,2.438,0.387,3.421,1.373c3.346,3.361,6.745,6.666,10.154,9.965
	c0.811,0.784,1.189,1.658,1.182,2.786c-0.027,4.529-0.012,9.06-0.012,13.589c0,0.28,0,0.559,0,0.913c-1.771,0-3.486,0-5.306,0
	c0-4.441,0-8.867,0-13.417c-0.662,0-1.222,0-1.781,0.001c-2.021,0.003-4.045,0.008-6.068,0.005c-1.773-0.001-2.24-0.458-2.24-2.197
	c-0.003-2.517-0.001-5.035-0.001-7.635c-13.275,0-26.5,0-39.803,0C4.669,34.277,4.669,56.026,4.669,77.825z"/>
</svg>
