<?xml version="1.0" encoding="utf-8"?>
<!-- Generator: Adobe Illustrator 16.0.0, SVG Export Plug-In . SVG Version: 6.00 Build 0)  -->
<!DOCTYPE svg PUBLIC "-//W3C//DTD SVG 1.1//EN" "http://www.w3.org/Graphics/SVG/1.1/DTD/svg11.dtd">
<svg version="1.1" id="Layer_1" xmlns="http://www.w3.org/2000/svg" xmlns:xlink="http://www.w3.org/1999/xlink" x="0px" y="0px"
	 width="60px" height="76px" viewBox="0 6.938 60 76" enable-background="new 0 6.938 60 76" xml:space="preserve">
<g>
	<path d="M60,34.684V24.502c0-1.207-0.454-2.376-1.271-3.269L48.229,8.493c-0.912-0.988-2.185-1.556-3.527-1.556H4.8
		c-2.651,0-4.8,2.159-4.8,4.824v14.478h2.4v3.619H1.2c-0.661,0-1.2,0.543-1.2,1.206v2.412c0,0.665,0.539,1.207,1.2,1.207h1.2v8.445
		H0v34.983c0,2.667,2.148,4.825,4.8,4.825h50.401c2.652,0,4.799-2.158,4.799-4.825v-39.81h-2.398v-3.619H60z M7.199,22.62
		c0-1.328,1.081-2.413,2.4-2.413H49.2c1.319,0,2.401,1.085,2.401,2.413v48.254c0,1.326-1.082,2.412-2.401,2.412H9.6
		c-1.319,0-2.4-1.086-2.4-2.412V22.62z M52.8,78.125c0,0.664-0.526,1.196-1.186,1.196H8.389c-0.661,0-1.189-0.532-1.189-1.196V78.1
		c0-0.662,0.528-1.194,1.189-1.194h43.226c0.659,0,1.186,0.532,1.186,1.194V78.125z"/>
	<path d="M9.6,72.082H49.2c0.664,0,1.201-0.543,1.201-1.208V22.62c0-0.666-0.537-1.206-1.201-1.206H9.6
		c-0.662,0-1.199,0.54-1.199,1.206v48.254C8.4,71.539,8.938,72.082,9.6,72.082z M39.127,54.27h8.601v1.725h-6.545v5.033h6.191v1.701
		h-6.191v5.741h6.9v1.726h-8.956V54.27z M27.975,54.27h2.056v14.2h6.805v1.726h-8.86V54.27z M22.327,54.27h2.056v15.926h-2.056
		V54.27z M10.82,54.27h8.578v1.725h-6.522v5.293h6.026v1.701h-6.026v7.207H10.82V54.27z"/>
</g>
</svg>
