<?xml version="1.0" encoding="utf-8"?>
<!-- Generator: Adobe Illustrator 16.0.0, SVG Export Plug-In . SVG Version: 6.00 Build 0)  -->
<!DOCTYPE svg PUBLIC "-//W3C//DTD SVG 1.1//EN" "http://www.w3.org/Graphics/SVG/1.1/DTD/svg11.dtd">
<svg version="1.1" id="Слой_1" xmlns="http://www.w3.org/2000/svg" xmlns:xlink="http://www.w3.org/1999/xlink" x="0px" y="0px"
	 width="40px" height="40px" viewBox="0 0 40 40" enable-background="new 0 0 40 40" xml:space="preserve">
<image overflow="visible" width="512" height="512" xlink:href="C:\Users\An\Downloads\Metro UI Icon Set\Office Apps\Word 2013.png"  transform="matrix(0.7503 0 0 0.7503 -918.9707 -541.9707)">
</image>
<path fill-rule="evenodd" clip-rule="evenodd" fill="#F7931E" d="M4.201,19.945c0-6.335,0.01-12.67-0.014-19.006
	C4.184,0.237,4.356-0.003,5.096,0c6.216,0.027,12.433,0.011,18.649,0.028c0.326,0.001,0.748,0.089,0.962,0.301
	c3.532,3.514,7.048,7.044,10.531,10.606c0.308,0.314,0.52,0.869,0.521,1.313c0.037,8.993,0.033,17.986,0.054,26.978
	c0.002,0.599-0.218,0.771-0.793,0.771C25.008,39.984,14.995,39.983,4.981,40c-0.647,0.001-0.792-0.237-0.791-0.835
	C4.208,32.758,4.201,26.352,4.201,19.945z M33.554,14.395c-4.026-4.002-8.047-7.999-12.018-11.946
	c-0.03,0.521-0.099,1.181-0.102,1.841c-0.014,3.083,0.008,6.166-0.025,9.249c-0.008,0.675,0.18,0.902,0.875,0.896
	c3.604-0.03,7.209-0.013,10.814-0.015C33.28,14.419,33.463,14.4,33.554,14.395z"/>
</svg>
