<?xml version="1.0" encoding="utf-8"?>
<!-- Generator: Adobe Illustrator 16.0.0, SVG Export Plug-In . SVG Version: 6.00 Build 0)  -->
<!DOCTYPE svg PUBLIC "-//W3C//DTD SVG 1.1//EN" "http://www.w3.org/Graphics/SVG/1.1/DTD/svg11.dtd">
<svg version="1.1" id="Слой_1" xmlns="http://www.w3.org/2000/svg" xmlns:xlink="http://www.w3.org/1999/xlink" x="0px" y="0px"
	 width="42.667px" height="40px" viewBox="-1.25 0 42.667 40" enable-background="new -1.25 0 42.667 40" xml:space="preserve">
<path fill="#FFCB30" stroke="#FFCB30" stroke-miterlimit="10" d="M34.928,14.563l-5.073,8.585h3.812
	c-0.777,7.023-6.726,12.487-13.956,12.487c-5.14,0-9.621-2.769-12.07-6.887l-2.006,1.233c2.862,4.787,8.093,7.994,14.076,7.994
	c8.523,0,15.522-6.51,16.31-14.828H40L34.928,14.563z"/>
<path fill="#FFCB30" stroke="#FFCB30" stroke-miterlimit="10" d="M5.073,25.969l5.072-8.585H6.334
	C7.112,10.361,13.06,4.897,20.291,4.897c5.139,0,9.622,2.768,12.069,6.886l2.006-1.233c-2.859-4.788-8.092-7.994-14.075-7.994
	c-8.523,0-15.523,6.51-16.31,14.828H0L5.073,25.969z"/>
</svg>
