<?xml version="1.0" encoding="utf-8"?>
<!-- Generator: Adobe Illustrator 16.0.0, SVG Export Plug-In . SVG Version: 6.00 Build 0)  -->
<!DOCTYPE svg PUBLIC "-//W3C//DTD SVG 1.1//EN" "http://www.w3.org/Graphics/SVG/1.1/DTD/svg11.dtd">
<svg version="1.1" id="Layer_1" xmlns="http://www.w3.org/2000/svg" xmlns:xlink="http://www.w3.org/1999/xlink" x="0px" y="0px"
	 width="28px" height="28px" viewBox="23 24 28 28" enable-background="new 23 24 28 28" xml:space="preserve">
<g>
	<path d="M37.882,33.212v3.924h3.763v1.692h-3.763v3.96h-1.764v-3.96h-3.763v-1.692h3.763v-3.924H37.882z"/>
</g>
<path fill="none" d="M26.647,42.388c0.547,0.017,1.095,0.017,1.642-0.001c0.542-0.017,0.88-0.365,0.907-0.915
	c0.014-0.29,0.002-0.583,0.003-0.875c0-0.263,0.008-0.524-0.002-0.788c-0.022-0.551-0.351-0.907-0.892-0.928
	c-0.561-0.022-1.124-0.021-1.686,0c-0.521,0.02-0.863,0.365-0.883,0.891c-0.021,0.568-0.021,1.138,0,1.706
	C25.758,42.03,26.102,42.371,26.647,42.388z"/>
<path fill="none" d="M28.316,28.347c-0.273-0.015-0.548-0.002-0.822-0.002c0-0.001,0-0.001,0-0.002
	c-0.259,0-0.519-0.005-0.778,0.001c-0.622,0.015-0.967,0.349-0.982,0.972c-0.014,0.54-0.017,1.08,0.003,1.619
	c0.02,0.559,0.351,0.899,0.901,0.919c0.562,0.02,1.125,0.023,1.686-0.002c0.525-0.024,0.854-0.371,0.872-0.903
	c0.018-0.568,0.018-1.138,0-1.707C29.179,28.718,28.833,28.377,28.316,28.347z"/>
<path fill="none" d="M29.198,34.56c-0.019-0.576-0.354-0.93-0.917-0.947c-0.547-0.017-1.095-0.018-1.643,0
	c-0.543,0.017-0.883,0.36-0.902,0.915c-0.019,0.554-0.019,1.11-0.001,1.664c0.019,0.558,0.349,0.906,0.894,0.927
	c0.561,0.021,1.125,0.023,1.686-0.002c0.542-0.023,0.86-0.38,0.883-0.938c0.01-0.262,0.002-0.525,0.002-0.787
	C29.2,35.114,29.208,34.837,29.198,34.56z"/>
<path fill="none" d="M38.016,38.953v4.56h-2.031v-4.56h-4.332v-0.041c-0.497,0.101-0.72,0.43-0.721,1.054
	c-0.003,2.192-0.003,4.385,0,6.577c0.001,0.791,0.321,1.114,1.108,1.115c1.646,0.001,3.292,0,4.937,0c1.66,0,3.32,0.001,4.98,0
	c0.783-0.001,1.109-0.326,1.111-1.113c0.003-2.193,0.003-4.386,0-6.578c-0.002-0.626-0.225-0.954-0.722-1.055v0.041H38.016z"/>
<path fill="none" d="M48.269,34.578c-0.02-0.6-0.356-0.953-0.944-0.967c-0.532-0.013-1.066-0.014-1.599,0.001
	c-0.546,0.014-0.903,0.358-0.921,0.897c-0.019,0.568-0.019,1.138,0.002,1.706c0.018,0.528,0.354,0.879,0.873,0.901
	c0.561,0.024,1.124,0.022,1.686,0.002c0.54-0.02,0.876-0.376,0.9-0.922c0.014-0.277,0.003-0.555,0.004-0.832
	C48.27,35.103,48.275,34.841,48.269,34.578z"/>
<path fill="none" d="M28.305,44.145c-0.562-0.019-1.125-0.019-1.687,0c-0.521,0.019-0.85,0.359-0.882,0.892
	c-0.017,0.277-0.003,0.555-0.003,0.832c0,0,0,0-0.001,0c0,0.278-0.01,0.556,0.001,0.833c0.027,0.601,0.365,0.94,0.96,0.955
	c0.519,0.01,1.039,0.011,1.558-0.002c0.587-0.015,0.935-0.367,0.948-0.963c0.012-0.54,0.013-1.081-0.001-1.621
	C29.181,44.518,28.844,44.163,28.305,44.145z"/>
<path fill="none" d="M47.353,28.345c-0.273-0.012-0.548-0.001-0.821-0.002c-0.26,0-0.52-0.007-0.778,0.002
	c-0.591,0.019-0.937,0.361-0.951,0.959c-0.012,0.54-0.015,1.08,0.002,1.62c0.018,0.557,0.347,0.907,0.892,0.929
	c0.561,0.022,1.124,0.022,1.686-0.001c0.527-0.021,0.861-0.363,0.881-0.891c0.021-0.568,0.02-1.139,0.001-1.707
	C48.245,28.705,47.899,28.37,47.353,28.345z"/>
<path fill="none" d="M41.957,28.343c-3.307,0-6.612-0.001-9.917,0c-0.79,0.001-1.107,0.319-1.108,1.112
	c-0.002,2.178-0.002,4.354,0,6.532c0,0.665,0.211,0.995,0.721,1.098v-0.08h4.332v-4.518h2.031v4.518h4.331v0.082
	c0.497-0.101,0.72-0.43,0.722-1.057c0.003-2.191,0.003-4.384,0-6.576C43.067,28.664,42.745,28.344,41.957,28.343z"/>
<path fill="none" d="M47.343,38.879c-0.548-0.018-1.097-0.019-1.644,0.001c-0.538,0.021-0.88,0.376-0.896,0.924
	c-0.016,0.554-0.017,1.109,0.001,1.663c0.018,0.552,0.358,0.893,0.9,0.922c0.272,0.015,0.548,0.003,0.821,0.003l0,0
	c0.245,0,0.49,0.005,0.734,0c0.646-0.013,0.994-0.352,1.007-0.996c0.01-0.524,0.012-1.051-0.001-1.575
	C48.252,39.251,47.907,38.895,47.343,38.879z"/>
<path fill="none" d="M48.264,45.047c-0.026-0.53-0.354-0.883-0.871-0.901c-0.575-0.021-1.153-0.021-1.729,0.001
	c-0.498,0.02-0.836,0.364-0.856,0.869c-0.022,0.583-0.023,1.169,0,1.751c0.021,0.528,0.368,0.868,0.891,0.885
	c0.562,0.02,1.125,0.021,1.687-0.001c0.52-0.02,0.85-0.367,0.879-0.896c0.017-0.276,0.003-0.555,0.003-0.832
	C48.267,45.631,48.279,45.339,48.264,45.047z"/>
<path d="M47.596,26.597c-7.061-0.002-14.122-0.002-21.182,0c-1.537,0-2.413,0.893-2.414,2.453c0,5.965,0,11.93,0,17.895
	c0,1.576,0.881,2.46,2.449,2.46c3.509,0,7.018,0,10.526,0c3.538,0,7.076,0.001,10.613,0c1.535-0.001,2.41-0.893,2.41-2.453
	c0.001-5.979,0.001-11.959,0-17.938C49.999,27.487,49.114,26.597,47.596,26.597z M48.266,36.197c-0.024,0.546-0.36,0.902-0.9,0.922
	c-0.562,0.021-1.125,0.022-1.686-0.002c-0.52-0.022-0.855-0.373-0.873-0.901c-0.021-0.568-0.021-1.138-0.002-1.706
	c0.018-0.54,0.375-0.883,0.921-0.897c0.532-0.015,1.066-0.014,1.599-0.001c0.588,0.014,0.925,0.367,0.944,0.967
	c0.007,0.263,0.001,0.524,0.001,0.787C48.269,35.643,48.279,35.92,48.266,36.197z M29.198,36.179
	c-0.023,0.558-0.342,0.916-0.883,0.938c-0.561,0.025-1.125,0.023-1.686,0.002c-0.545-0.021-0.875-0.369-0.894-0.927
	c-0.018-0.553-0.018-1.109,0.001-1.664c0.019-0.555,0.359-0.898,0.902-0.915c0.547-0.018,1.096-0.017,1.643,0
	c0.564,0.017,0.898,0.371,0.917,0.947c0.01,0.277,0.002,0.554,0.002,0.832C29.2,35.654,29.208,35.917,29.198,36.179z M25.737,39.771
	c0.02-0.525,0.363-0.871,0.883-0.891c0.562-0.021,1.125-0.022,1.686,0c0.542,0.021,0.87,0.377,0.892,0.928
	c0.01,0.264,0.002,0.525,0.002,0.788c-0.001,0.292,0.011,0.585-0.003,0.875c-0.027,0.55-0.366,0.898-0.907,0.915
	c-0.547,0.018-1.095,0.018-1.642,0.001c-0.545-0.017-0.89-0.357-0.91-0.91C25.716,40.909,25.716,40.34,25.737,39.771z
	 M29.198,46.691c-0.013,0.596-0.36,0.948-0.948,0.963c-0.519,0.013-1.039,0.012-1.558,0.002c-0.595-0.015-0.933-0.354-0.96-0.955
	c-0.012-0.277-0.001-0.555-0.001-0.833c0.001,0,0.001,0,0.001,0c0-0.277-0.014-0.555,0.003-0.832
	c0.033-0.532,0.361-0.873,0.882-0.892c0.562-0.019,1.125-0.019,1.687,0c0.539,0.019,0.876,0.373,0.891,0.926
	C29.211,45.61,29.21,46.151,29.198,46.691z M29.195,30.949c-0.018,0.532-0.346,0.879-0.872,0.903
	c-0.561,0.025-1.125,0.022-1.686,0.002c-0.55-0.021-0.881-0.361-0.901-0.919c-0.02-0.539-0.017-1.079-0.003-1.619
	c0.015-0.624,0.36-0.958,0.982-0.972c0.259-0.006,0.519-0.001,0.778-0.001c0,0.001,0,0.001,0,0.002c0.274,0,0.549-0.013,0.822,0.002
	c0.518,0.03,0.863,0.371,0.879,0.895C29.213,29.811,29.213,30.38,29.195,30.949z M43.068,36.03
	c-0.002,0.627-0.225,0.956-0.722,1.057v1.825c0.497,0.101,0.72,0.429,0.722,1.055c0.003,2.192,0.003,4.385,0,6.578
	c-0.002,0.787-0.328,1.112-1.111,1.113c-1.66,0.001-3.32,0-4.98,0c-1.646,0-3.291,0.001-4.937,0
	c-0.788-0.001-1.107-0.324-1.108-1.115c-0.002-2.192-0.002-4.385,0-6.577c0-0.624,0.224-0.953,0.721-1.054v-1.827
	c-0.51-0.104-0.721-0.434-0.721-1.098c-0.002-2.178-0.002-4.354,0-6.532c0.001-0.793,0.318-1.111,1.108-1.112
	c3.306-0.001,6.611,0,9.917,0c0.788,0.001,1.11,0.321,1.111,1.112C43.071,31.646,43.071,33.839,43.068,36.03z M48.264,46.755
	c-0.029,0.528-0.359,0.876-0.879,0.896c-0.562,0.021-1.125,0.021-1.687,0.001c-0.522-0.017-0.869-0.356-0.891-0.885
	c-0.023-0.582-0.022-1.168,0-1.751c0.021-0.505,0.358-0.85,0.856-0.869c0.575-0.022,1.153-0.021,1.729-0.001
	c0.518,0.019,0.845,0.371,0.871,0.901c0.016,0.292,0.003,0.584,0.003,0.876C48.267,46.2,48.28,46.479,48.264,46.755z M48.268,41.396
	c-0.013,0.645-0.361,0.983-1.007,0.996c-0.244,0.005-0.489,0-0.734,0l0,0c-0.273,0-0.549,0.012-0.821-0.003
	c-0.542-0.029-0.883-0.37-0.9-0.922c-0.018-0.554-0.017-1.109-0.001-1.663c0.016-0.548,0.357-0.903,0.896-0.924
	c0.547-0.02,1.096-0.019,1.644-0.001c0.564,0.016,0.909,0.372,0.924,0.941C48.279,40.345,48.277,40.871,48.268,41.396z
	 M48.262,30.961c-0.02,0.528-0.354,0.87-0.881,0.891c-0.562,0.023-1.125,0.023-1.686,0.001c-0.545-0.022-0.874-0.373-0.892-0.929
	c-0.017-0.54-0.014-1.08-0.002-1.62c0.015-0.598,0.36-0.94,0.951-0.959c0.259-0.009,0.519-0.002,0.778-0.002
	c0.273,0.001,0.548-0.009,0.821,0.002c0.547,0.025,0.893,0.359,0.91,0.909C48.281,29.822,48.283,30.393,48.262,30.961z"/>
</svg>
