<?xml version="1.0" encoding="utf-8"?>
<!-- Generator: Adobe Illustrator 16.0.0, SVG Export Plug-In . SVG Version: 6.00 Build 0)  -->
<!DOCTYPE svg PUBLIC "-//W3C//DTD SVG 1.1//EN" "http://www.w3.org/Graphics/SVG/1.1/DTD/svg11.dtd">
<svg version="1.1" id="Слой_1" xmlns="http://www.w3.org/2000/svg" xmlns:xlink="http://www.w3.org/1999/xlink" x="0px" y="0px"
	 width="40px" height="40px" viewBox="0 0 40 40" enable-background="new 0 0 40 40" xml:space="preserve">
<path fill-rule="evenodd" clip-rule="evenodd" fill="#AD0000" d="M36.201,30.275c0-0.577,0-1.063,0-1.643c-0.316,0-0.594,0-0.872,0
	c-3.494,0-6.988-0.016-10.482,0.015c-0.659,0.005-0.93-0.137-0.896-0.856c0.071-1.549-0.189-1.342,1.391-1.347
	c3.304-0.011,6.608-0.003,9.912-0.003c0.284,0,0.568,0,0.92,0c0-0.542,0-1.044,0-1.641c-0.291,0-0.569,0-0.847,0
	c-3.494,0-6.989-0.017-10.482,0.014c-0.664,0.006-0.926-0.144-0.894-0.858c0.076-1.696-0.242-1.485,1.468-1.49
	c3.28-0.011,6.561-0.004,9.841-0.004c0.283,0,0.566,0,0.978,0c0-0.467,0.05-0.891-0.026-1.291c-0.028-0.146-0.355-0.329-0.55-0.334
	c-1.26-0.03-2.52-0.016-3.779-0.016c-2.4,0-4.802-0.016-7.202,0.012c-0.568,0.006-0.743-0.173-0.724-0.732
	c0.059-1.636-0.246-1.445,1.429-1.451c3.352-0.01,6.703,0.001,10.055-0.012c0.258-0.001,0.713-0.085,0.737-0.201
	c0.084-0.405,0.064-0.851-0.022-1.258c-0.021-0.096-0.462-0.142-0.709-0.143c-3.471-0.009-6.94-0.006-10.411-0.007
	c-0.214,0-0.451,0.052-0.635-0.024c-0.173-0.071-0.29-0.279-0.429-0.429c-0.012-0.013-0.002-0.046-0.004-0.07
	c-0.116-1.523-0.116-1.523,1.408-1.523c3.305,0,6.608,0,9.912,0c0.281,0,0.563,0,0.898,0c0-0.562,0-1.043,0-1.598
	c-0.287-0.014-0.564-0.04-0.841-0.04c-3.494-0.002-6.988-0.021-10.482,0.015c-0.727,0.007-0.946-0.203-0.911-0.926
	c0.074-1.582-0.216-1.389,1.418-1.394c3.304-0.009,6.608-0.002,9.912-0.002c0.282,0,0.563,0,0.902,0c0-0.549,0-1.035,0-1.642
	c-0.269,0-0.543,0-0.816,0c-3.519,0-7.037-0.019-10.555,0.016c-0.702,0.007-0.909-0.215-0.859-0.889
	c0.055-0.733,0.053-1.476,0.001-2.209c-0.045-0.634,0.184-0.813,0.804-0.81c4.064,0.023,8.13,0.012,12.194,0.011
	c0.737,0,1.476,0.036,2.21-0.01C39.815,5.464,40.002,5.697,40,6.354c-0.022,7.107-0.014,14.214-0.014,21.322
	c0,2.02-0.021,4.041,0.012,6.061c0.01,0.58-0.194,0.727-0.74,0.725c-4.85-0.016-9.698-0.019-14.548,0.002
	c-0.605,0.003-0.783-0.204-0.756-0.784c0.041-0.854,0.049-1.713-0.002-2.566c-0.037-0.644,0.155-0.857,0.828-0.852
	c3.493,0.032,6.987,0.015,10.482,0.015C35.546,30.275,35.829,30.275,36.201,30.275z"/>
<image overflow="visible" width="512" height="512" xlink:href="C:\Users\An\Downloads\Metro UI Icon Set\Office Apps\Word 2013.png"  transform="matrix(0.7503 0 0 0.7503 -918.9707 -541.9707)">
</image>
<path fill-rule="evenodd" clip-rule="evenodd" d="M-98.953,61.969c0-7.641,0-15.281,0-22.922c8,0,16,0,24,0
	c0,7.641,0,15.281,0,22.922c-0.101-0.004-0.202-0.013-0.303-0.013c-7.798,0-15.596,0-23.394,0
	C-98.751,61.956-98.852,61.965-98.953,61.969z M-79.907,56.17c0.078,0,0.157,0.007,0.234-0.002c1.167-0.13,1.87-1.027,1.506-2.179
	c-0.243-0.771-0.817-1.249-1.529-1.552c-1.219-0.52-2.515-0.667-3.824-0.627c-0.422,0.013-0.681-0.09-0.943-0.408
	c-0.802-0.973-1.569-1.966-2.171-3.076c-0.068-0.125-0.125-0.306-0.089-0.432c0.428-1.462,0.745-2.945,0.892-4.461
	c0.042-0.428,0.09-0.878-0.28-1.204c-0.966-0.853-2.271-0.373-2.536,0.6c-0.134,0.491-0.222,1.011-0.224,1.519
	c-0.005,1.229,0.305,2.406,0.748,3.547c0.064,0.165,0.072,0.301,0.012,0.468c-0.579,1.616-1.375,3.123-2.262,4.588
	c-0.164,0.271-0.372,0.427-0.664,0.538c-1.04,0.394-2.033,0.884-2.915,1.571c-0.61,0.477-1.172,1.002-1.331,1.806
	c-0.088,0.445-0.091,0.896,0.283,1.241c0.366,0.339,0.794,0.262,1.214,0.136c0.542-0.162,0.99-0.49,1.405-0.863
	c0.955-0.857,1.701-1.889,2.433-2.933c0.066-0.094,0.172-0.185,0.279-0.223c1.529-0.553,3.112-0.891,4.714-1.146
	c0.292-0.047,0.497,0.022,0.704,0.255c0.729,0.82,1.536,1.558,2.461,2.155C-81.216,55.858-80.622,56.188-79.907,56.17z"/>
<path fill-rule="evenodd" clip-rule="evenodd" fill="#FFFFFF" d="M-98.953,61.969c0.101-0.004,0.202-0.013,0.303-0.013
	c7.798,0,15.596,0,23.394,0c0.101,0,0.202,0.009,0.303,0.013c0,0.359,0,0.719,0,1.078c-8,0-16,0-24,0
	C-98.953,62.688-98.953,62.328-98.953,61.969z"/>
<path fill="#AD0000" d="M10.443,14.8c0.135-0.963,0.272-1.925,0.401-2.889c0.023-0.172-0.114-0.213-0.243-0.201
	c-0.177,0.016-0.298,0.119-0.342,0.302c-0.223,0.937-0.134,1.86,0.095,2.779C10.384,14.794,10.414,14.797,10.443,14.8z"/>
<path fill="#AD0000" d="M3.71,25.846c0.934-0.379,1.533-1.135,2.134-1.887C5.004,24.441,4.117,24.869,3.71,25.846z"/>
<path fill="#AD0000" d="M9.014,21.432c1.085-0.238,2.182-0.479,3.271-0.717c-0.582-0.793-1.167-1.589-1.742-2.372
	C10.038,19.364,9.52,20.41,9.014,21.432z"/>
<path fill="#AD0000" d="M22.518,0.989C15.249,2.302,7.962,3.621,0.691,4.921C0.152,5.017,0.012,5.262,0.013,5.779
	c0.014,9.462,0.012,18.925-0.008,28.387c-0.001,0.61,0.201,0.803,0.778,0.906c5.939,1.059,11.908,2.146,17.844,3.225
	C20.046,38.554,21,38.801,23,39.065c0-12.742,0-25.395,0-38.131C23,0.96,22.631,0.968,22.518,0.989z M18.16,24.918
	c-0.077,0.008-0.156,0.002-0.234,0.002c-0.715,0.018-1.309-0.313-1.882-0.682c-0.925-0.598-1.732-1.336-2.461-2.156
	c-0.207-0.232-0.412-0.301-0.704-0.254c-1.603,0.254-3.185,0.592-4.714,1.145c-0.107,0.039-0.213,0.129-0.279,0.223
	c-0.731,1.045-1.478,2.076-2.433,2.934c-0.415,0.373-0.863,0.701-1.405,0.863c-0.419,0.125-0.848,0.203-1.214-0.137
	c-0.374-0.344-0.371-0.795-0.283-1.24c0.159-0.805,0.721-1.33,1.331-1.807c0.882-0.688,1.875-1.178,2.915-1.57
	c0.292-0.111,0.5-0.268,0.664-0.539c0.887-1.464,1.683-2.971,2.262-4.587c0.06-0.167,0.052-0.303-0.012-0.468
	c-0.443-1.141-0.752-2.317-0.748-3.547c0.002-0.508,0.09-1.027,0.224-1.519c0.265-0.973,1.57-1.452,2.536-0.6
	c0.37,0.326,0.322,0.776,0.28,1.204c-0.147,1.516-0.464,2.999-0.892,4.461c-0.037,0.126,0.021,0.307,0.089,0.432
	c0.602,1.11,1.369,2.104,2.171,3.076c0.263,0.318,0.521,0.421,0.943,0.408c1.309-0.04,2.604,0.107,3.824,0.627
	c0.712,0.303,1.286,0.781,1.529,1.551C20.03,23.891,19.328,24.787,18.16,24.918z"/>
<path fill="#AD0000" d="M17.881,22.369c-0.394-0.18-0.81-0.328-1.232-0.42c-0.565-0.123-1.146-0.18-1.719-0.264
	c-0.019,0.045-0.039,0.09-0.058,0.137c0.557,0.449,1.101,0.916,1.675,1.342c0.285,0.211,0.618,0.361,0.941,0.514
	c0.262,0.121,0.542,0.129,0.817,0.014c0.258-0.109,0.34-0.27,0.268-0.541C18.474,22.775,18.211,22.518,17.881,22.369z"/>
<path fill-rule="evenodd" clip-rule="evenodd" d="M-87.29,49.593c0.575,0.783,1.16,1.579,1.742,2.372
	c-1.088,0.238-2.186,0.479-3.271,0.718C-88.313,51.66-87.795,50.614-87.29,49.593z"/>
<path fill-rule="evenodd" clip-rule="evenodd" d="M-82.903,52.937c0.574,0.084,1.154,0.14,1.719,0.263
	c0.422,0.092,0.838,0.241,1.232,0.42c0.33,0.149,0.593,0.406,0.693,0.781c0.072,0.271-0.01,0.433-0.268,0.541
	c-0.275,0.116-0.556,0.108-0.817-0.014c-0.323-0.151-0.656-0.303-0.941-0.514c-0.574-0.426-1.119-0.893-1.675-1.342
	C-82.941,53.026-82.922,52.981-82.903,52.937z"/>
<path fill-rule="evenodd" clip-rule="evenodd" d="M-87.479,46.042c-0.229-0.919-0.318-1.843-0.095-2.779
	c0.043-0.183,0.165-0.286,0.342-0.302c0.129-0.012,0.267,0.029,0.243,0.201c-0.129,0.964-0.267,1.926-0.401,2.889
	C-87.419,46.048-87.449,46.045-87.479,46.042z"/>
<path fill-rule="evenodd" clip-rule="evenodd" d="M-94.123,57.096c0.407-0.976,1.294-1.403,2.134-1.886
	C-92.59,55.962-93.189,56.717-94.123,57.096z"/>
</svg>
