<?xml version="1.0" encoding="utf-8"?>
<!-- Generator: Adobe Illustrator 16.0.0, SVG Export Plug-In . SVG Version: 6.00 Build 0)  -->
<!DOCTYPE svg PUBLIC "-//W3C//DTD SVG 1.1//EN" "http://www.w3.org/Graphics/SVG/1.1/DTD/svg11.dtd">
<svg version="1.1" id="Слой_1" xmlns="http://www.w3.org/2000/svg" xmlns:xlink="http://www.w3.org/1999/xlink" x="0px" y="0px"
	 width="40px" height="40px" viewBox="0 0 40 40" enable-background="new 0 0 40 40" xml:space="preserve">
<g>
	<path fill-rule="evenodd" clip-rule="evenodd" fill="#005698" d="M22.926,0.935c0,12.736,0,25.389,0,38.131
		c-1.497-0.265-2.918-0.512-4.336-0.769c-5.936-1.078-11.87-2.166-17.809-3.225C0.204,34.969-0.001,34.776,0,34.166
		c0.02-9.462,0.018-18.924,0.003-28.387c-0.001-0.517,0.13-0.762,0.669-0.858c7.271-1.3,14.539-2.619,21.808-3.932
		C22.594,0.968,22.709,0.96,22.926,0.935z M7.806,23.433c-0.029,0.002-0.058,0.003-0.087,0.005
		c-0.545-3.255-1.091-6.509-1.644-9.811c-0.82,0.045-1.542,0.085-2.223,0.123c-0.049,0.157-0.083,0.205-0.074,0.245
		c0.828,4.095,1.653,8.189,2.504,12.279c0.034,0.162,0.301,0.38,0.47,0.39c0.731,0.043,1.466,0.019,2.26,0.019
		c0.688-3.206,1.374-6.406,2.084-9.716c0.099,0.177,0.149,0.231,0.162,0.293c0.525,2.582,1.034,5.166,1.574,7.745
		c0.401,1.918,0.42,1.893,2.395,1.997c0.6,0.032,0.859-0.107,0.995-0.738c0.911-4.224,1.87-8.438,2.809-12.655
		c0.043-0.194,0.05-0.396,0.084-0.683c-0.752,0.041-1.411,0.091-2.071,0.107c-0.386,0.01-0.518,0.187-0.58,0.555
		c-0.503,2.998-1.028,5.991-1.544,8.987c-0.057,0.33-0.101,0.663-0.151,0.995c-0.676-2.788-1.233-5.551-1.785-8.315
		c-0.416-2.083-0.414-2.096-2.524-1.855c-0.205,0.023-0.496,0.27-0.549,0.466c-0.235,0.87-0.395,1.76-0.587,2.642
		C8.819,18.814,8.312,21.124,7.806,23.433z"/>
	<path fill-rule="evenodd" clip-rule="evenodd" fill="#005698" d="M36.201,30.275c0-0.577,0-1.063,0-1.643c-0.316,0-0.594,0-0.872,0
		c-3.494,0-6.988-0.016-10.482,0.015c-0.659,0.005-0.93-0.137-0.896-0.856c0.071-1.549-0.189-1.342,1.391-1.347
		c3.304-0.011,6.608-0.003,9.912-0.003c0.284,0,0.568,0,0.92,0c0-0.542,0-1.044,0-1.641c-0.291,0-0.569,0-0.847,0
		c-3.494,0-6.989-0.017-10.482,0.014c-0.664,0.006-0.926-0.144-0.894-0.858c0.076-1.696-0.242-1.485,1.468-1.49
		c3.28-0.011,6.561-0.004,9.841-0.004c0.283,0,0.566,0,0.978,0c0-0.467,0.05-0.891-0.026-1.291c-0.028-0.146-0.355-0.329-0.55-0.334
		c-1.26-0.03-2.52-0.016-3.779-0.016c-2.4,0-4.802-0.016-7.202,0.012c-0.568,0.006-0.743-0.173-0.724-0.732
		c0.059-1.636-0.246-1.445,1.429-1.451c3.352-0.01,6.703,0.001,10.055-0.012c0.258-0.001,0.713-0.085,0.737-0.201
		c0.084-0.405,0.064-0.851-0.022-1.258c-0.021-0.096-0.462-0.142-0.709-0.143c-3.471-0.009-6.94-0.006-10.411-0.007
		c-0.214,0-0.451,0.052-0.635-0.024c-0.173-0.071-0.29-0.279-0.429-0.429c-0.012-0.013-0.002-0.046-0.004-0.07
		c-0.116-1.523-0.116-1.523,1.408-1.523c3.305,0,6.608,0,9.912,0c0.281,0,0.563,0,0.898,0c0-0.562,0-1.043,0-1.598
		c-0.287-0.014-0.564-0.04-0.841-0.04c-3.494-0.002-6.988-0.021-10.482,0.015c-0.727,0.007-0.946-0.203-0.911-0.926
		c0.074-1.582-0.216-1.389,1.418-1.394c3.304-0.009,6.608-0.002,9.912-0.002c0.282,0,0.563,0,0.902,0c0-0.549,0-1.035,0-1.642
		c-0.269,0-0.543,0-0.816,0c-3.519,0-7.037-0.019-10.555,0.016c-0.702,0.007-0.909-0.215-0.859-0.889
		c0.055-0.733,0.053-1.476,0.001-2.209c-0.045-0.634,0.184-0.813,0.804-0.81c4.064,0.023,8.13,0.012,12.194,0.011
		c0.737,0,1.476,0.036,2.21-0.01C39.815,5.464,40.002,5.697,40,6.354c-0.022,7.107-0.014,14.214-0.014,21.322
		c0,2.02-0.021,4.041,0.012,6.061c0.01,0.58-0.194,0.727-0.74,0.725c-4.85-0.016-9.698-0.019-14.548,0.002
		c-0.605,0.003-0.783-0.204-0.756-0.784c0.041-0.854,0.049-1.713-0.002-2.566c-0.037-0.644,0.155-0.857,0.828-0.852
		c3.493,0.032,6.987,0.015,10.482,0.015C35.546,30.275,35.829,30.275,36.201,30.275z"/>
</g>
<image overflow="visible" width="512" height="512" xlink:href="C:\Users\An\Downloads\Metro UI Icon Set\Office Apps\Word 2013.png"  transform="matrix(0.7503 0 0 0.7503 -918.9707 -541.9707)">
</image>
</svg>
