<?xml version="1.0" encoding="utf-8"?>
<!-- Generator: Adobe Illustrator 16.0.0, SVG Export Plug-In . SVG Version: 6.00 Build 0)  -->
<!DOCTYPE svg PUBLIC "-//W3C//DTD SVG 1.1//EN" "http://www.w3.org/Graphics/SVG/1.1/DTD/svg11.dtd">
<svg version="1.1" id="Layer_1" xmlns="http://www.w3.org/2000/svg" xmlns:xlink="http://www.w3.org/1999/xlink" x="0px" y="0px"
	 width="28px" height="28px" viewBox="23 24 28 28" enable-background="new 23 24 28 28" xml:space="preserve">
<path d="M33.937,41.725c-0.37,0-0.649,0.032-0.838,0.073v4.372c0.181,0.034,0.444,0.041,0.723,0.041
	c1.529,0,2.359-0.854,2.359-2.351C36.189,42.554,35.449,41.725,33.937,41.725z"/>
<path d="M25.904,49.472c5.831,0,11.653,0,17.509,0c0-0.305,0-0.606,0-0.933c0.638,0,1.242,0,1.865,0
	c0,0.685,0.037,1.369-0.013,2.048c-0.035,0.472-0.454,0.762-0.96,0.762c-2.011,0.004-4.022,0.001-6.034,0.001
	c-4.304,0-8.608,0-12.912,0c-0.121,0-0.241,0.003-0.36-0.001c-0.616-0.021-0.984-0.376-0.993-0.996
	c-0.012-0.835-0.003-1.67-0.003-2.507c0-7.33,0.001-14.662,0.002-21.993c0-0.879,0.324-1.196,1.218-1.197
	c4.965,0,9.929,0.002,14.894-0.007c0.481-0.001,0.857,0.136,1.203,0.482c1.175,1.181,2.369,2.342,3.567,3.501
	c0.284,0.275,0.418,0.583,0.415,0.979c-0.009,1.591-0.005,3.183-0.005,4.774c0,0.099,0,0.197,0,0.321c-0.622,0-1.224,0-1.863,0
	c0-1.56,0-3.115,0-4.714c-0.233,0-0.43,0-0.627,0c-0.71,0-1.421,0.003-2.132,0.001c-0.623,0-0.787-0.161-0.787-0.771
	c-0.001-0.885,0-1.769,0-2.683c-4.664,0-9.311,0-13.984,0C25.904,34.171,25.904,41.813,25.904,49.472z"/>
<path d="M49.297,36.446H30.896c-0.388,0-0.703,0.314-0.703,0.703v8.783c0,0.389,0.315,0.703,0.703,0.703h18.401
	c0.389,0,0.703-0.314,0.703-0.703v-8.783C50,36.76,49.686,36.446,49.297,36.446z M43.808,42.172h-2.767v2.767h-1.89v-2.767h-2.766
	v-1.889h2.766v-2.767h1.89v2.767h2.767V42.172z"/>
</svg>
