<?xml version="1.0" encoding="utf-8"?>
<!-- Generator: Adobe Illustrator 16.0.0, SVG Export Plug-In . SVG Version: 6.00 Build 0)  -->
<!DOCTYPE svg PUBLIC "-//W3C//DTD SVG 1.1//EN" "http://www.w3.org/Graphics/SVG/1.1/DTD/svg11.dtd">
<svg version="1.1" id="Слой_1" xmlns="http://www.w3.org/2000/svg" xmlns:xlink="http://www.w3.org/1999/xlink" x="0px" y="0px"
	 width="40px" height="40px" viewBox="0 0 40 40" enable-background="new 0 0 40 40" xml:space="preserve">
<path fill="none" d="M22.268,18.816l-0.252-0.368c-0.516-0.749-1.363-1.196-2.268-1.196c-1.516,0-2.749,1.232-2.749,2.747
	c0,1.517,1.233,2.748,2.749,2.748c0.788,0,1.541-0.343,2.064-0.94l0.305-0.349l0.172-0.415c0.138-0.332,0.207-0.683,0.207-1.044
	c0-0.239-0.035-0.489-0.105-0.743L22.268,18.816z"/>
<path fill="none" d="M32.725,13.415l0.246,0.366c0.512,0.762,1.365,1.216,2.282,1.216c1.515,0,2.747-1.233,2.747-2.748
	c0-1.516-1.232-2.749-2.747-2.749c-0.392,0-0.762,0.085-1.099,0.232c0.041,0.092,0.082,0.185,0.135,0.285
	c-0.164,0.288-0.29,0.579-0.477,0.828c-0.418,0.559-0.851,1.108-1.272,1.664c0.015,0.15,0.021,0.297,0.063,0.455L32.725,13.415z"/>
<path fill="none" d="M34.023,29.303c0.275,0.334,0.375,0.676,0.229,1.004c0.312,0.121,0.646,0.193,0.999,0.193
	c1.516,0,2.747-1.23,2.747-2.746s-1.231-2.749-2.747-2.749c-1.027,0-1.962,0.567-2.439,1.483l-0.207,0.398l-0.067,0.467
	c-0.007,0.047-0.007,0.097-0.013,0.144c0.076,0.085,0.15,0.17,0.238,0.253C33.243,28.204,33.6,28.787,34.023,29.303z"/>
<path fill="#FFCB30" d="M7.694,27.537c2.261,0,4.284-1,5.664-2.576l11.499,6.258c-0.052,0.355-0.088,0.717-0.088,1.09
	c0,4.16,3.374,7.533,7.54,7.533c4.159,0,7.535-3.373,7.535-7.533c0.001-4.164-3.373-7.537-7.534-7.537
	c-2.911,0-5.428,1.646-6.688,4.064l-10.958-5.963c0.264-0.643,0.44-1.326,0.52-2.04H0.205C0.62,24.604,3.813,27.537,7.694,27.537z"
	/>
<path fill="#666666" d="M14.948,17.977L26.052,11.9c1.354,2.012,3.649,3.333,6.257,3.333c4.159,0,7.535-3.375,7.535-7.538
	c0-4.162-3.373-7.538-7.534-7.538c-4.165,0-7.539,3.375-7.539,7.538c0,0.679,0.1,1.332,0.265,1.956l-11.124,6.086
	c-1.359-1.978-3.635-3.274-6.217-3.274c-4.162,0-7.538,3.373-7.538,7.536c0,0.282,0.019,0.559,0.048,0.833h14.978
	c0.03-0.273,0.049-0.551,0.049-0.833C15.232,19.299,15.128,18.621,14.948,17.977z"/>
</svg>
