<?xml version="1.0" encoding="utf-8"?>
<!-- Generator: Adobe Illustrator 16.0.0, SVG Export Plug-In . SVG Version: 6.00 Build 0)  -->
<!DOCTYPE svg PUBLIC "-//W3C//DTD SVG 1.1//EN" "http://www.w3.org/Graphics/SVG/1.1/DTD/svg11.dtd">
<svg version="1.1" id="Слой_1" xmlns="http://www.w3.org/2000/svg" xmlns:xlink="http://www.w3.org/1999/xlink" x="0px" y="0px"
	 width="40px" height="40px" viewBox="0 0 40 40" enable-background="new 0 0 40 40" xml:space="preserve">
<g>
	<path fill-rule="evenodd" clip-rule="evenodd" fill="#FFFFFF" d="M-336.969,320.484c-173.617,0-347.235,0-520.926,0
		c0-208.557,0-417.128,0-625.842c173.593,0,347.259,0,520.926,0C-336.969-96.776-336.969,111.846-336.969,320.484z M-754.97,4.136
		c0,64.319-0.008,128.635,0.032,192.954c0.001,2.293,0.027,4.75,0.807,6.846c2.444,6.57,7.979,7.563,14.2,7.559
		c92.978-0.055,185.956-0.039,278.934-0.041c11.401,0,15.168-3.785,15.169-15.297c0.003-127.969,0.001-255.939-0.006-383.909
		c0-10.812-3.906-14.746-14.666-14.747c-93.312-0.005-186.623,0.088-279.934-0.139c-8.709-0.021-14.747,4.464-14.697,14.82
		C-754.822-123.834-754.976-59.849-754.97,4.136z"/>
	<path fill-rule="evenodd" clip-rule="evenodd" d="M-754.973,4.136c-0.003-63.985,0.15-127.971-0.158-191.954
		c-0.05-10.356,5.988-14.841,14.697-14.82c93.311,0.227,186.622,0.134,279.934,0.139c10.76,0.001,14.666,3.936,14.666,14.747
		c0.007,127.97,0.009,255.94,0.006,383.909c-0.001,11.512-3.768,15.297-15.169,15.297c-92.978,0.002-185.956-0.014-278.934,0.041
		c-6.221,0.004-11.756-0.988-14.2-7.559c-0.779-2.096-0.806-4.553-0.807-6.846C-754.978,132.771-754.97,68.455-754.973,4.136z
		 M-510.406,187.861c-3.065-1.604-4.676-2.723-6.461-3.32c-3.313-1.111-3.925-2.875-2.493-6.035
		c8.052-17.771,15.924-35.627,23.979-53.398c3.968-8.756,4.051-8.625,12.818-4.502c4.186,1.967,8.536,3.584,13.758,5.754
		c0-14.666-0.168-27.967,0.092-41.258c0.089-4.529-1.565-5.533-5.807-5.527c-83.809,0.115-167.617,0.131-251.426,0.01
		c-4.815-0.008-6.35,1.426-6.31,6.24c0.201,24.658,0.11,49.318,0.12,73.979c0.003,7.83,0.101,15.664-0.04,23.492
		c-0.065,3.631,0.797,5.898,5.024,5.236c0.811-0.125,1.662,0.025,2.495,0.023c7.474-0.031,7.481-0.033,7.483-7.328
		c0.005-18.828,0.156-37.658-0.108-56.482c-0.063-4.572,1.433-5.846,5.713-5.533c4.31,0.316,8.659,0.057,12.991,0.076
		c9.375,0.043,8.676-1.408,8.692,8.924c0.03,18.328-0.053,36.656,0.077,54.982c0.013,1.725,0.734,4.391,1.939,4.992
		c5.089,2.545,9-0.125,9.004-5.719c0.015-19.328,0.126-38.656-0.076-57.982c-0.044-4.287,1.425-5.514,5.495-5.289
		c5.482,0.299,11.011,0.361,16.486,0.012c4.43-0.281,5.619,1.182,5.559,5.619c-0.261,19.158-0.168,38.322-0.038,57.482
		c0.014,1.992,0.803,5.484,1.776,5.689c3.324,0.699,7.063,0.828,10.275-0.098c1.139-0.328,1.697-4.303,1.717-6.621
		c0.167-19.156,0.235-38.318,0.099-57.475c-0.025-3.584,1.192-4.742,4.582-4.619c4.826,0.174,9.662,0.074,14.494,0.102
		c9.578,0.055,8.336-0.709,8.361,8.221c0.052,18.662-0.036,37.324,0.111,55.984c0.013,1.65,0.938,4.318,2.108,4.764
		c6.544,2.502,10.03-0.061,10.035-6.895c0.013-18.994,0.076-37.988-0.043-56.982c-0.023-3.836,1.178-5.381,5.188-5.164
		c5.648,0.303,11.344,0.379,16.983,0.008c4.575-0.301,5.601,1.514,5.56,5.748c-0.185,19.326,0.031,38.656-0.162,57.982
		c-0.044,4.379,1.313,5.727,5.712,5.666c16.158-0.221,32.321-0.049,48.483-0.066C-514.764,188.551-513.371,188.229-510.406,187.861z
		 M-519.858,50.623c2.223,0.482,3.313,0.924,4.405,0.928c14.164,0.039,28.329-0.053,42.492,0.055
		c3.816,0.029,4.172-2.006,4.166-5.068c-0.057-30.998-0.011-61.995-0.017-92.993c-0.001-6.482-0.044-6.479-6.664-6.479
		c-81.159-0.005-162.319-0.01-243.479-0.015c-13.195-0.001-13.181,0-13.183,13.125c-0.005,28.664-0.062,57.328,0.043,85.992
		c0.006,1.729,1.056,4.83,1.918,4.939c3.726,0.471,7.781,0.742,11.244-0.377c1.268-0.41,1.688-4.871,1.707-7.488
		c0.13-18.832,0.006-37.665,0.143-56.496c0.012-1.598,1.282-4.539,2.061-4.571c8.238-0.336,16.496-0.208,25.134-0.208
		c0,2.662,0.001,4.477,0,6.29c-0.009,19.332-0.068,38.665,0.062,57.995c0.011,1.688,0.811,4.285,2.027,4.895
		c5.151,2.572,8.933-0.07,8.932-5.752c-0.006-19.498-0.016-38.997,0.047-58.495c0.007-1.937-1.011-4.838,2.482-4.892
		c8.108-0.125,16.22-0.04,24.822-0.04c0,2.445,0.001,4.241,0,6.037c-0.007,18.998-0.028,37.997-0.011,56.995
		c0.005,6.473,0.209,6.625,6.875,6.604c7.018-0.021,7.228-0.229,7.223-7.396c-0.001-1.832-0.074-3.664-0.077-5.498
		c-0.026-17.332-0.105-34.664,0.034-51.995c0.013-1.589,1.378-4.507,2.209-4.542c8.24-0.343,16.5-0.207,25.152-0.207
		c0,2.875,0.001,4.855,0,6.835c-0.002,18.999,0.109,37.999-0.096,56.995c-0.045,4.256,1.091,6.059,5.549,5.932
		c6.324-0.178,6.801-0.385,6.805-6.756c0.011-19.332,0.07-38.666-0.101-57.996c-0.035-3.945,1.328-5.32,5.191-5.191
		c5.989,0.2,11.995,0.16,17.985-0.035c3.54-0.115,4.764,1.346,4.554,4.74c-0.126,2.036,0.249,4.104,0.464,7.041
		c7.515-3.537,14.288-6.548,20.884-9.908c3.154-1.607,4.608-1.018,6.087,2.197c5.795,12.599,11.86,25.072,17.824,37.593
		c3.678,7.723,7.353,15.447,11.068,23.252C-515.88,47.982-517.368,48.971-519.858,50.623z M-611.707-153.509
		c0,2.455-0.001,4.269,0,6.082c0.007,20.165-0.016,40.33,0.076,60.495c0.008,1.694,0.563,4.738,1.248,4.853
		c3.527,0.589,7.262,0.869,10.734,0.229c0.933-0.173,1.686-3.944,1.7-6.068c0.139-20.331,0.167-40.664,0.053-60.994
		c-0.02-3.592,0.947-5.14,4.788-4.968c5.82,0.262,11.672,0.263,17.492-0.008c4.071-0.189,5.48,1.12,5.44,5.348
		c-0.19,20.663,0.008,41.33-0.153,61.993c-0.033,4.18,1.414,5.459,5.496,5.408c14.33-0.178,28.664-0.043,42.996-0.064
		c1.101-0.001,2.202-0.299,2.354-0.321c0.425-2.69,0.368-4.922,1.14-6.817c7.354-18.064,14.795-36.093,22.324-54.085
		c3.594-8.588,1.406-9.126,11.768-4.855c4.784,1.973,9.674,3.689,15.41,5.859c0-12.595,0.097-23.893-0.156-35.183
		c-0.024-1.069-2.15-2.837-3.454-2.992c-3.615-0.43-7.312-0.193-10.977-0.194c-80.66-0.007-161.32-0.014-241.98-0.005
		c-6.586,0.001-6.736,0.231-6.733,6.732c0.013,26.998,0.1,53.996-0.028,80.993c-0.063,13.151-0.387,10.45,10.955,10.929
		c4.502,0.189,6.122-1.152,6.071-5.899c-0.22-20.496-0.069-40.996-0.031-61.494c0.003-1.601,0.171-3.201,0.289-5.279
		c7.602,0,14.741,0.155,21.87-0.063c3.831-0.117,5.166,1.085,5.129,5.093c-0.191,20.663,0.021,41.33-0.192,61.993
		c-0.046,4.442,1.382,5.757,5.716,5.695c4.094-0.059,5.135-1.753,5.117-5.447c-0.102-20.498,0.057-40.997-0.174-61.493
		c-0.052-4.605,1.393-6.166,5.945-5.885c5.479,0.339,11.003,0.288,16.49,0.037c3.876-0.177,5.128,1.079,5.09,5.079
		c-0.197,20.663,0.019,41.33-0.192,61.993c-0.045,4.376,1.26,5.756,5.639,5.779c4.514,0.023,5.609-1.64,5.57-5.888
		c-0.188-20.163-0.087-40.329-0.088-60.494c0-1.931,0-3.861,0-6.094C-629.613-153.509-621.028-153.509-611.707-153.509z
		 M-542.285,51.125C-551.405,32-559.992,13.991-568.58-4.018c-1.352,1.012-1.649,1.612-1.65,2.214
		c-0.028,16.487,0.006,32.976-0.059,49.464c-0.011,2.814,1.279,3.904,3.914,3.906c4.663,0.006,9.327,0.115,13.989,0.059
		C-549.347,51.588-546.31,51.334-542.285,51.125z M-469.08,137.516c-0.471-0.113-0.941-0.227-1.412-0.342
		c-7.481,16.762-14.963,33.523-22.916,51.34c7.537,0,13.666-0.207,19.771,0.078c3.765,0.174,4.921-1.145,4.878-4.824
		c-0.157-13.648-0.051-27.301-0.07-40.951C-468.831,141.049-468.992,139.283-469.08,137.516z M-469.242-131.429
		c-0.448-0.068-0.896-0.137-1.344-0.206c-6.604,15.804-13.242,31.594-19.672,47.468c-0.222,0.548,1.587,2.742,2.538,2.804
		c4.633,0.302,9.311-0.101,13.941,0.211c4.077,0.274,5.072-1.422,5.025-5.193c-0.17-13.62-0.061-27.245-0.095-40.867
		C-468.852-128.619-469.104-130.024-469.242-131.429z"/>
	<path fill-rule="evenodd" clip-rule="evenodd" fill="#FFFFFF" d="M-510.406,187.861c-2.965,0.367-4.357,0.689-5.75,0.691
		c-16.162,0.018-32.325-0.154-48.483,0.066c-4.398,0.061-5.756-1.287-5.712-5.666c0.193-19.326-0.022-38.656,0.162-57.982
		c0.041-4.234-0.984-6.049-5.56-5.748c-5.64,0.371-11.335,0.295-16.983-0.008c-4.011-0.217-5.212,1.328-5.188,5.164
		c0.119,18.994,0.056,37.988,0.043,56.982c-0.005,6.834-3.491,9.396-10.035,6.895c-1.17-0.445-2.096-3.113-2.108-4.764
		c-0.147-18.66-0.06-37.322-0.111-55.984c-0.025-8.93,1.217-8.166-8.361-8.221c-4.832-0.027-9.668,0.072-14.494-0.102
		c-3.39-0.123-4.607,1.035-4.582,4.619c0.137,19.156,0.068,38.318-0.099,57.475c-0.02,2.318-0.578,6.293-1.717,6.621
		c-3.213,0.926-6.951,0.797-10.275,0.098c-0.974-0.205-1.763-3.697-1.776-5.689c-0.13-19.16-0.223-38.324,0.038-57.482
		c0.061-4.438-1.129-5.9-5.559-5.619c-5.476,0.35-11.004,0.287-16.486-0.012c-4.07-0.225-5.539,1.002-5.495,5.289
		c0.202,19.326,0.091,38.654,0.076,57.982c-0.004,5.594-3.915,8.264-9.004,5.719c-1.205-0.602-1.927-3.268-1.939-4.992
		c-0.13-18.326-0.047-36.654-0.077-54.982c-0.017-10.332,0.683-8.881-8.692-8.924c-4.332-0.02-8.682,0.24-12.991-0.076
		c-4.28-0.313-5.776,0.961-5.713,5.533c0.265,18.824,0.113,37.654,0.108,56.482c-0.002,7.295-0.01,7.297-7.483,7.328
		c-0.833,0.002-1.685-0.148-2.495-0.023c-4.228,0.662-5.09-1.605-5.024-5.236c0.141-7.828,0.043-15.662,0.04-23.492
		c-0.01-24.66,0.081-49.32-0.12-73.979c-0.04-4.814,1.494-6.248,6.31-6.24c83.809,0.121,167.617,0.105,251.426-0.01
		c4.241-0.006,5.896,0.998,5.807,5.527c-0.26,13.291-0.092,26.592-0.092,41.258c-5.222-2.17-9.572-3.787-13.758-5.754
		c-8.768-4.123-8.851-4.254-12.818,4.502c-8.056,17.771-15.928,35.627-23.979,53.398c-1.432,3.16-0.819,4.924,2.493,6.035
		C-515.082,185.139-513.472,186.258-510.406,187.861z"/>
	<path fill-rule="evenodd" clip-rule="evenodd" fill="#FFFFFF" d="M-519.858,50.623c2.49-1.652,3.979-2.641,5.962-3.959
		c-3.716-7.805-7.391-15.529-11.068-23.252c-5.964-12.521-12.029-24.995-17.824-37.593c-1.479-3.215-2.933-3.805-6.087-2.197
		c-6.596,3.36-13.369,6.371-20.884,9.908c-0.215-2.938-0.59-5.005-0.464-7.041c0.21-3.395-1.014-4.855-4.554-4.74
		c-5.99,0.195-11.996,0.235-17.985,0.035c-3.863-0.129-5.227,1.246-5.191,5.191c0.171,19.33,0.111,38.664,0.101,57.996
		c-0.004,6.371-0.48,6.578-6.805,6.756c-4.458,0.127-5.594-1.676-5.549-5.932c0.205-18.996,0.094-37.996,0.096-56.995
		c0.001-1.979,0-3.96,0-6.835c-8.652,0-16.912-0.136-25.152,0.207c-0.831,0.035-2.196,2.953-2.209,4.542
		c-0.14,17.331-0.061,34.663-0.034,51.995c0.003,1.834,0.076,3.666,0.077,5.498c0.005,7.168-0.205,7.375-7.223,7.396
		c-6.666,0.021-6.87-0.131-6.875-6.604c-0.018-18.998,0.004-37.997,0.011-56.995c0.001-1.796,0-3.592,0-6.037
		c-8.603,0-16.714-0.085-24.822,0.04c-3.493,0.054-2.476,2.955-2.482,4.892c-0.063,19.498-0.053,38.997-0.047,58.495
		c0.001,5.682-3.78,8.324-8.932,5.752c-1.217-0.609-2.017-3.207-2.027-4.895c-0.13-19.33-0.07-38.663-0.062-57.995
		c0.001-1.813,0-3.628,0-6.29c-8.638,0-16.896-0.128-25.134,0.208c-0.778,0.032-2.049,2.974-2.061,4.571
		c-0.137,18.831-0.013,37.664-0.143,56.496c-0.019,2.617-0.439,7.078-1.707,7.488c-3.463,1.119-7.519,0.848-11.244,0.377
		c-0.862-0.109-1.912-3.211-1.918-4.939c-0.104-28.664-0.048-57.328-0.043-85.992c0.002-13.125-0.013-13.126,13.183-13.125
		c81.16,0.005,162.32,0.01,243.479,0.015c6.62,0,6.663-0.004,6.664,6.479c0.006,30.998-0.04,61.995,0.017,92.993
		c0.006,3.063-0.35,5.098-4.166,5.068c-14.163-0.107-28.328-0.016-42.492-0.055C-516.545,51.547-517.636,51.105-519.858,50.623z"/>
	<path fill-rule="evenodd" clip-rule="evenodd" fill="#FFFFFF" d="M-611.707-153.509c-9.321,0-17.906,0-27.259,0
		c0,2.232,0,4.163,0,6.094c0.001,20.165-0.1,40.331,0.088,60.494c0.039,4.248-1.057,5.911-5.57,5.888
		c-4.379-0.023-5.684-1.403-5.639-5.779c0.211-20.663-0.005-41.33,0.192-61.993c0.038-4-1.214-5.256-5.09-5.079
		c-5.487,0.251-11.012,0.302-16.49-0.037c-4.553-0.281-5.997,1.279-5.945,5.885c0.23,20.496,0.072,40.995,0.174,61.493
		c0.018,3.694-1.023,5.389-5.117,5.447c-4.334,0.062-5.762-1.253-5.716-5.695c0.214-20.663,0.001-41.33,0.192-61.993
		c0.037-4.008-1.298-5.21-5.129-5.093c-7.129,0.218-14.269,0.063-21.87,0.063c-0.118,2.078-0.286,3.679-0.289,5.279
		c-0.038,20.498-0.188,40.998,0.031,61.494c0.051,4.747-1.569,6.089-6.071,5.899c-11.342-0.479-11.019,2.223-10.955-10.929
		c0.128-26.997,0.041-53.995,0.028-80.993c-0.003-6.501,0.147-6.731,6.733-6.732c80.66-0.009,161.32-0.002,241.98,0.005
		c3.665,0.001,7.361-0.235,10.977,0.194c1.304,0.155,3.43,1.923,3.454,2.992c0.253,11.29,0.156,22.588,0.156,35.183
		c-5.736-2.17-10.626-3.887-15.41-5.859c-10.361-4.271-8.174-3.732-11.768,4.855c-7.529,17.992-14.971,36.021-22.324,54.085
		c-0.771,1.896-0.715,4.127-1.14,6.817c-0.151,0.022-1.253,0.32-2.354,0.321c-14.332,0.021-28.666-0.113-42.996,0.064
		c-4.082,0.051-5.529-1.229-5.496-5.408c0.161-20.663-0.037-41.33,0.153-61.993c0.04-4.228-1.369-5.537-5.44-5.348
		c-5.82,0.271-11.672,0.27-17.492,0.008c-3.841-0.172-4.808,1.376-4.788,4.968c0.114,20.33,0.086,40.663-0.053,60.994
		c-0.015,2.124-0.768,5.896-1.7,6.068c-3.473,0.64-7.207,0.359-10.734-0.229c-0.686-0.114-1.24-3.158-1.248-4.853
		c-0.092-20.165-0.069-40.33-0.076-60.495C-611.708-149.241-611.707-151.054-611.707-153.509z"/>
	<path fill-rule="evenodd" clip-rule="evenodd" fill="#FFFFFF" d="M-542.285,51.125c-4.024,0.209-7.062,0.463-10.101,0.5
		c-4.662,0.057-9.326-0.053-13.989-0.059c-2.635-0.002-3.925-1.092-3.914-3.906c0.064-16.488,0.03-32.977,0.059-49.464
		c0.001-0.602,0.299-1.202,1.65-2.214C-559.992,13.991-551.405,32-542.285,51.125z"/>
	<path fill-rule="evenodd" clip-rule="evenodd" fill="#FFFFFF" d="M-469.08,137.516c0.088,1.768,0.249,3.533,0.251,5.301
		c0.02,13.65-0.087,27.303,0.07,40.951c0.043,3.68-1.113,4.998-4.878,4.824c-6.105-0.285-12.234-0.078-19.771-0.078
		c7.953-17.816,15.435-34.578,22.916-51.34C-470.021,137.289-469.551,137.402-469.08,137.516z"/>
	<path fill-rule="evenodd" clip-rule="evenodd" fill="#FFFFFF" d="M-469.242-131.429c0.138,1.405,0.391,2.811,0.395,4.216
		c0.034,13.622-0.075,27.247,0.095,40.867c0.047,3.771-0.948,5.468-5.025,5.193c-4.631-0.312-9.309,0.091-13.941-0.211
		c-0.951-0.062-2.76-2.256-2.538-2.804c6.43-15.874,13.067-31.664,19.672-47.468C-470.139-131.566-469.69-131.498-469.242-131.429z"
		/>
</g>
<path d="M38,0H2C0.896,0,0,0.896,0,2v36c0,1.104,0.896,2,2,2h36c1.104,0,2-0.896,2-2V2C40,0.896,39.104,0,38,0z M38,35
	c0,1.104-0.896,2-2,2H4c-1.104,0-2-0.896-2-2V23c0-1.104,0.896-2,2-2h32c1.104,0,2,0.896,2,2V35z M38,17c0,1.104-0.896,2-2,2H4
	c-1.104,0-2-0.896-2-2V5c0-1.104,0.896-2,2-2h32c1.104,0,2,0.896,2,2V17z"/>
<path d="M5.75,5.583V18.25c0,0.437,0.355,0.792,0.792,0.792h4.75c0.438,0,0.792-0.356,0.792-0.792V5.583
	c0-0.438-0.354-0.792-0.792-0.792h-4.75C6.104,4.791,5.75,5.146,5.75,5.583z"/>
<path d="M16.833,5.583V18.25c0,0.437,0.355,0.792,0.792,0.792h4.75c0.437,0,0.792-0.356,0.792-0.792V5.583
	c0-0.438-0.355-0.792-0.792-0.792h-4.75C17.188,4.791,16.833,5.146,16.833,5.583z"/>
<path d="M32.297,4.837l-5.875,11.221c-0.202,0.387-0.053,0.867,0.334,1.069l4.208,2.203c0.387,0.203,0.867,0.052,1.069-0.334
	l5.875-11.221c0.203-0.388,0.053-0.867-0.334-1.069l-4.208-2.203C32.979,4.3,32.5,4.449,32.297,4.837z"/>
<g>
	<path d="M21.209,22.703v5.38h5.158v2.32h-5.158v5.431H18.79v-5.431h-5.158v-2.32h5.158v-5.38H21.209z"/>
</g>
</svg>
