<?xml version="1.0" encoding="utf-8"?>
<!-- Generator: Adobe Illustrator 16.0.0, SVG Export Plug-In . SVG Version: 6.00 Build 0)  -->
<!DOCTYPE svg PUBLIC "-//W3C//DTD SVG 1.1//EN" "http://www.w3.org/Graphics/SVG/1.1/DTD/svg11.dtd">
<svg version="1.1" id="Слой_1" xmlns="http://www.w3.org/2000/svg" xmlns:xlink="http://www.w3.org/1999/xlink" x="0px" y="0px"
	 width="40px" height="40px" viewBox="0 0 40 40" enable-background="new 0 0 40 40" xml:space="preserve">
<path d="M20,0C8.954,0,0,8.954,0,20s8.954,20,20,20s20-8.954,20-20S31.046,0,20,0z M20.359,33.652
	c-0.409,0.386-0.879,0.578-1.408,0.578s-0.999-0.192-1.409-0.578c-0.397-0.385-0.596-0.854-0.596-1.408
	c0-0.565,0.199-1.034,0.596-1.407c0.397-0.398,0.867-0.597,1.409-0.597s1.011,0.198,1.408,0.597
	c0.397,0.373,0.596,0.842,0.596,1.407C20.955,32.799,20.756,33.268,20.359,33.652z M25.558,15.652
	c-0.313,0.698-0.706,1.339-1.182,1.923s-0.99,1.128-1.544,1.634c-0.554,0.505-1.068,1.007-1.543,1.507
	c-0.476,0.499-0.87,1.02-1.183,1.562s-0.469,1.138-0.469,1.787c0,0.554,0.066,1.058,0.199,1.509c0.132,0.45,0.264,0.832,0.397,1.146
	h-2.907c-0.108-0.313-0.205-0.719-0.289-1.219c-0.084-0.5-0.127-0.996-0.127-1.489c0-0.771,0.154-1.466,0.46-2.086
	c0.307-0.619,0.689-1.199,1.147-1.742c0.457-0.542,0.957-1.062,1.498-1.562c0.542-0.5,1.042-1.005,1.499-1.517
	s0.839-1.047,1.146-1.607c0.308-0.56,0.46-1.176,0.46-1.851c0-0.578-0.11-1.089-0.333-1.535c-0.223-0.445-0.525-0.818-0.911-1.119
	s-0.831-0.526-1.337-0.677c-0.505-0.15-1.041-0.226-1.607-0.226c-2.034,0-3.797,0.8-5.29,2.401V9.315
	c1.842-1.155,3.749-1.733,5.724-1.733c0.915,0,1.774,0.12,2.581,0.361c0.808,0.241,1.514,0.599,2.122,1.074
	c0.607,0.475,1.086,1.068,1.436,1.778c0.349,0.71,0.523,1.535,0.523,2.474C26.028,14.16,25.871,14.955,25.558,15.652z"/>
</svg>
