<?xml version="1.0" encoding="utf-8"?>
<!-- Generator: Adobe Illustrator 16.0.0, SVG Export Plug-In . SVG Version: 6.00 Build 0)  -->
<!DOCTYPE svg PUBLIC "-//W3C//DTD SVG 1.1//EN" "http://www.w3.org/Graphics/SVG/1.1/DTD/svg11.dtd">
<svg version="1.1" id="Слой_1" xmlns="http://www.w3.org/2000/svg" xmlns:xlink="http://www.w3.org/1999/xlink" x="0px" y="0px"
	 width="40px" height="40px" viewBox="0 0 40 40" enable-background="new 0 0 40 40" xml:space="preserve">
<path d="M38,0H2C0.896,0,0,0.896,0,2v36c0,1.104,0.896,2,2,2h36c1.104,0,2-0.896,2-2V2C40,0.896,39.104,0,38,0z M38,35
	c0,1.104-0.896,2-2,2H4c-1.104,0-2-0.896-2-2V23c0-1.104,0.896-2,2-2h32c1.104,0,2,0.896,2,2V35z M38,17c0,1.104-0.896,2-2,2H4
	c-1.104,0-2-0.896-2-2V5c0-1.104,0.896-2,2-2h32c1.104,0,2,0.896,2,2V17z"/>
<path d="M5.75,5.583V18.25c0,0.437,0.355,0.792,0.792,0.792h4.75c0.438,0,0.792-0.356,0.792-0.792V5.583
	c0-0.438-0.354-0.792-0.792-0.792h-4.75C6.104,4.791,5.75,5.146,5.75,5.583z"/>
<path d="M16.833,5.583V18.25c0,0.437,0.355,0.792,0.792,0.792h4.75c0.438,0,0.792-0.356,0.792-0.792V5.583
	c0-0.438-0.354-0.792-0.792-0.792h-4.75C17.188,4.791,16.833,5.146,16.833,5.583z"/>
<path d="M16.833,23.541v12.667c0,0.438,0.355,0.792,0.792,0.792h4.75c0.438,0,0.792-0.356,0.792-0.792V23.541
	c0-0.438-0.354-0.792-0.792-0.792h-4.75C17.187,22.749,16.833,23.104,16.833,23.541z"/>
<path d="M5.875,23.541v12.667C5.875,36.646,6.23,37,6.667,37h4.75c0.438,0,0.792-0.356,0.792-0.792V23.541
	c0-0.438-0.354-0.792-0.792-0.792h-4.75C6.229,22.749,5.875,23.104,5.875,23.541z"/>
<path d="M27.416,23.666v12.667c0,0.438,0.354,0.792,0.792,0.792h4.75c0.438,0,0.792-0.356,0.792-0.792V23.666
	c0-0.438-0.354-0.792-0.792-0.792h-4.75C27.771,22.874,27.416,23.229,27.416,23.666z"/>
<path d="M32.297,4.837l-5.875,11.221c-0.201,0.387-0.053,0.867,0.334,1.069l4.208,2.203c0.388,0.203,0.867,0.052,1.069-0.334
	l5.875-11.221c0.203-0.388,0.053-0.867-0.334-1.069l-4.208-2.203C32.979,4.3,32.5,4.449,32.297,4.837z"/>
</svg>
