<?xml version="1.0" encoding="utf-8"?>
<!-- Generator: Adobe Illustrator 16.0.0, SVG Export Plug-In . SVG Version: 6.00 Build 0)  -->
<!DOCTYPE svg PUBLIC "-//W3C//DTD SVG 1.1//EN" "http://www.w3.org/Graphics/SVG/1.1/DTD/svg11.dtd">
<svg version="1.1" id="Слой_1" xmlns="http://www.w3.org/2000/svg" xmlns:xlink="http://www.w3.org/1999/xlink" x="0px" y="0px"
	 width="40px" height="40px" viewBox="0 0 40 40" enable-background="new 0 0 40 40" xml:space="preserve">
<path fill="none" d="M6.41,13.424h7.989v1.586l0.474,0.497l4.408-4.888l3.846,3.463l0.841-0.943l3.161,2.822l1.332-1.527
	l2.494,2.189h3.213V3.828h-4.784h-2.072H6.41V13.424z M13.111,5.292c1.205,0,2.182,0.977,2.182,2.182
	c0,1.205-0.977,2.183-2.182,2.183c-1.206,0-2.182-0.978-2.182-2.183C10.929,6.269,11.906,5.292,13.111,5.292z"/>
<rect x="3.2" y="16.622" fill="none" width="0.34" height="4.437"/>
<polygon fill="none" points="3.54,1.915 27.43,1.915 29.383,1.915 29.383,0 1.625,0 1.625,13.424 3.54,13.424 "/>
<path fill="#FFCB30" d="M25.328,24.887c-0.64-1.896-2.414-3.271-4.528-3.271c-2.114,0-3.889,1.375-4.53,3.271
	c-0.163,0.481-0.271,0.988-0.271,1.525c0,0.133,0.021,0.259,0.031,0.389c0.156,1.911,1.427,3.495,3.169,4.114v3.49
	c0,0.885,0.717,1.6,1.601,1.6s1.601-0.715,1.601-1.6v-3.49c1.741-0.618,3.012-2.203,3.168-4.114c0.011-0.13,0.031-0.256,0.031-0.389
	C25.6,25.876,25.491,25.368,25.328,24.887z"/>
<circle fill="#FFCB30" cx="13.111" cy="7.474" r="2.182"/>
<g>
	<polygon fill="#FFCB30" points="30.383,3 28.43,3 4.54,3 4.54,12.509 7.41,12.509 7.41,4.913 28.311,4.913 30.383,4.913 
		35.167,4.913 35.167,15.707 38.039,15.707 38.039,3 	"/>
	<polygon fill="#FFCB30" points="28.128,15.045 24.967,12.223 24.126,13.167 20.28,9.703 15.873,14.591 15.399,14.095 
		15.399,15.707 31.954,15.707 29.46,13.518 	"/>
</g>
<path fill="#FFCB30" d="M37.039,16.622h-2.872h-3.213H14.399V15.01v-1.586H6.41H3.54H1.625H0V40h40V16.622H37.039z M36.8,36.803H3.2
	V21.059v-4.437h0.34h2.87h3.362h4.612v1.432v1.765h19.783H36.8v6.982V36.803z"/>
<polygon fill="#FFCB30" points="25.843,0 23.89,0 0,0 0,12.532 2.87,12.573 2.87,1.913 23.771,1.913 25.843,1.913 30.627,1.913 
	30.627,2.739 33.499,2.739 33.499,0 "/>
</svg>
