<?xml version="1.0" encoding="utf-8"?>
<!-- Generator: Adobe Illustrator 16.0.0, SVG Export Plug-In . SVG Version: 6.00 Build 0)  -->
<!DOCTYPE svg PUBLIC "-//W3C//DTD SVG 1.1//EN" "http://www.w3.org/Graphics/SVG/1.1/DTD/svg11.dtd">
<svg version="1.1" id="Слой_1" xmlns="http://www.w3.org/2000/svg" xmlns:xlink="http://www.w3.org/1999/xlink" x="0px" y="0px"
	 width="40px" height="40px" viewBox="0 0 40 40" enable-background="new 0 0 40 40" xml:space="preserve">
<path fill-rule="evenodd" clip-rule="evenodd" fill="#FFFFFF" d="M10.3,9.668c0.045-1.273-0.216-2.563,0.944-3.509
	c0.771-0.626,1.663-0.632,2.587-0.638c1.093-0.006,1.949,0.377,2.545,1.27c0.585,0.876,0.311,1.875,0.417,2.847
	c2.13,0,4.239,0,6.438,0c0-0.413,0-0.835,0.002-1.257c0.008-1.806,1.105-2.769,2.984-2.872c2.391-0.13,3.672,1.211,3.475,3.339
	c-0.023,0.252-0.004,0.509-0.004,0.82c0.709,0,1.367-0.004,2.027,0.001c1.35,0.013,2.273,0.872,2.275,2.172
	c0.01,6.829,0.01,13.658,0,20.487c-0.002,1.298-0.932,2.167-2.287,2.167c-7.805,0.005-15.612,0.005-23.418,0
	c-1.352,0-2.28-0.879-2.281-2.169c-0.008-6.831-0.008-13.659,0-20.489c0.001-1.294,0.925-2.156,2.28-2.168
	C8.931,9.664,9.577,9.668,10.3,9.668z M19.426,26.721c0-1.738,0-3.433,0-5.119c-1.802,0-3.566,0-5.324,0c0,1.725,0,3.407,0,5.119
	C15.882,26.721,17.633,26.721,19.426,26.721z M25.904,21.604c-1.818,0-3.582,0-5.34,0c0,1.723,0,3.407,0,5.109
	c1.791,0,3.557,0,5.34,0C25.904,24.996,25.904,23.311,25.904,21.604z M14.103,15.89c0,1.571,0,3.083,0,4.612
	c1.792,0,3.556,0,5.324,0c0-1.557,0-3.081,0-4.612C17.638,15.89,15.886,15.89,14.103,15.89z M25.885,20.514c0-1.576,0-3.1,0-4.62
	c-1.793,0-3.545,0-5.317,0c0,1.55,0,3.073,0,4.62C22.35,20.514,24.102,20.514,25.885,20.514z M12.973,26.721
	c0-1.746,0-3.429,0-5.127c-1.613,0-3.198,0-4.783,0c0,1.729,0,3.425,0,5.127C9.801,26.721,11.373,26.721,12.973,26.721z
	 M27.041,21.58c0,1.752,0,3.448,0,5.137c1.617,0,3.188,0,4.773,0c0-1.727,0-3.423,0-5.137C30.209,21.58,28.637,21.58,27.041,21.58z
	 M19.44,27.811c-1.812,0-3.576,0-5.322,0c0,1.562,0,3.085,0,4.598c1.797,0,3.548,0,5.322,0C19.44,30.865,19.44,29.354,19.44,27.811z
	 M25.898,27.807c-1.803,0-3.566,0-5.32,0c0,1.56,0,3.084,0,4.604c1.794,0,3.544,0,5.32,0C25.898,30.869,25.898,29.359,25.898,27.807
	z M8.192,15.89c0,1.572,0,3.097,0,4.618c1.613,0,3.185,0,4.779,0c0-1.551,0-3.074,0-4.618C11.368,15.89,9.795,15.89,8.192,15.89z
	 M27.027,15.893c0,1.572,0,3.083,0,4.607c1.615,0,3.199,0,4.783,0c0-1.559,0-3.082,0-4.607
	C30.197,15.893,28.625,15.893,27.027,15.893z M8.175,32.4c1.629,0,3.212,0,4.784,0c0-1.563,0-3.088,0-4.602
	c-1.615,0-3.188,0-4.784,0C8.175,29.338,8.175,30.85,8.175,32.4z M31.813,32.412c0-1.563,0-3.086,0-4.602c-1.621,0-3.207,0-4.787,0
	c0,1.553,0,3.063,0,4.602C28.623,32.412,30.195,32.412,31.813,32.412z M12.458,10.402c0,0.535,0,1.068,0,1.603
	c0,1.301,0.003,1.305,1.339,1.287c0.653-0.01,0.816-0.165,0.818-0.803c0.004-1.188,0.001-2.376,0.001-3.565
	c0-1.357-0.033-1.38-1.445-1.338c-0.493,0.014-0.719,0.229-0.714,0.699C12.465,8.99,12.458,9.696,12.458,10.402z M25.383,10.391
	c0,0.534,0,1.069,0,1.603c0,1.316,0.01,1.327,1.381,1.297c0.594-0.014,0.773-0.176,0.775-0.739c0.006-1.206,0.002-2.413,0.002-3.619
	c0-1.374-0.02-1.392-1.436-1.345c-0.541,0.019-0.719,0.192-0.723,0.735C25.379,9.012,25.383,9.702,25.383,10.391z"/>
</svg>
