<?xml version="1.0" encoding="utf-8"?>
<!-- Generator: Adobe Illustrator 16.0.0, SVG Export Plug-In . SVG Version: 6.00 Build 0)  -->
<!DOCTYPE svg PUBLIC "-//W3C//DTD SVG 1.1//EN" "http://www.w3.org/Graphics/SVG/1.1/DTD/svg11.dtd">
<svg version="1.1" id="Слой_1" xmlns="http://www.w3.org/2000/svg" xmlns:xlink="http://www.w3.org/1999/xlink" x="0px" y="0px"
	 width="90px" height="65px" viewBox="0 0 90 65" enable-background="new 0 0 90 65" xml:space="preserve">
<path fill-rule="evenodd" clip-rule="evenodd" d="M45.025,0C55.342,0.427,65.64,0.867,75.938,1.275
	c5.467,0.216,9.854,2.243,11.824,7.7c0.846,2.342,1.196,4.921,1.43,7.425c1.071,11.505,1.163,23.017-0.251,34.506
	c-0.494,4.021-1.491,7.801-4.88,10.52c-2.414,1.938-5.23,2.322-8.114,2.549c-14.185,1.112-28.397,1.16-42.606,0.888
	c-7.147-0.138-14.292-0.651-21.425-1.172c-5.329-0.39-9.324-3.924-10.212-9.33c-0.809-4.923-1.351-9.929-1.513-14.916
	c-0.27-8.287-0.449-16.607,0.869-24.835c0.412-2.568,0.994-5.244,2.166-7.521c2.22-4.313,6.314-5.641,10.899-5.819
	C24.424,0.869,34.722,0.425,45.025,0z M32.16,32.621c0,5.229,0.014,10.458-0.01,15.685c-0.006,1.395,0.35,2.563,1.611,3.283
	c1.313,0.752,2.53,0.477,3.763-0.306c8.233-5.212,16.49-10.388,24.724-15.601c2.767-1.752,2.758-4.346-0.008-6.097
	c-8.186-5.184-16.389-10.341-24.573-15.527c-1.258-0.797-2.501-1.205-3.896-0.397c-1.33,0.771-1.632,1.994-1.623,3.438
	C32.179,22.273,32.16,27.447,32.16,32.621z"/>
</svg>
