<?xml version="1.0" encoding="utf-8"?>
<!-- Generator: Adobe Illustrator 16.0.0, SVG Export Plug-In . SVG Version: 6.00 Build 0)  -->
<!DOCTYPE svg PUBLIC "-//W3C//DTD SVG 1.1//EN" "http://www.w3.org/Graphics/SVG/1.1/DTD/svg11.dtd">
<svg version="1.1" id="Слой_1" xmlns="http://www.w3.org/2000/svg" xmlns:xlink="http://www.w3.org/1999/xlink" x="0px" y="0px"
	 width="62px" height="62px" viewBox="6.917 1.5 62 62" enable-background="new 6.917 1.5 62 62" xml:space="preserve">
<path fill="#FEC027" stroke="#000000" stroke-width="2" stroke-miterlimit="10" d="M59.57,27.798
	C46.915,19.783,34.235,11.811,21.582,3.793c-1.945-1.232-3.866-1.863-6.023-0.613c-2.057,1.19-2.523,3.082-2.509,5.314
	c0.048,7.998,0.019,15.997,0.019,23.996c0,8.083,0.021,16.167-0.016,24.249c-0.009,2.156,0.541,3.964,2.491,5.077
	c2.03,1.161,3.911,0.736,5.817-0.473c12.729-8.062,25.492-16.062,38.222-24.123C63.862,34.516,63.846,30.505,59.57,27.798z"/>
</svg>
