<?xml version="1.0" encoding="utf-8"?>
<!-- Generator: Adobe Illustrator 16.0.0, SVG Export Plug-In . SVG Version: 6.00 Build 0)  -->
<!DOCTYPE svg PUBLIC "-//W3C//DTD SVG 1.1//EN" "http://www.w3.org/Graphics/SVG/1.1/DTD/svg11.dtd">
<svg version="1.1" id="Слой_1" xmlns="http://www.w3.org/2000/svg" xmlns:xlink="http://www.w3.org/1999/xlink" x="0px" y="0px"
	 width="23px" height="32px" viewBox="0 0 23 32" enable-background="new 0 0 23 32" xml:space="preserve">
<path fill="none" d="M12.935,11.437l2.764,2.764c0.832-0.96,1.336-2.213,1.336-3.583c0-3.022-2.452-5.473-5.475-5.473
	c-3.023,0-5.473,2.451-5.473,5.473c0,1.37,0.504,2.622,1.336,3.583l2.763-2.764C10.944,10.677,12.176,10.677,12.935,11.437z"/>
<path fill="none" d="M10.185,20.667l-2.763-2.763c-0.832,0.96-1.336,2.21-1.336,3.582c0,3.021,2.45,5.473,5.473,5.473
	c3.022,0,5.475-2.451,5.475-5.473c0-1.372-0.505-2.622-1.336-3.582l-2.764,2.763C12.176,21.427,10.944,21.427,10.185,20.667z"/>
<path fill="none" d="M12.214,16.051c-0.215-0.025-0.433-0.04-0.654-0.04c-0.221,0-0.439,0.014-0.653,0.04
	c0.213,0.026,0.432,0.042,0.653,0.042C11.781,16.093,11.999,16.077,12.214,16.051z"/>
<g>
	<path fill="#EFBC45" d="M20.971,9.583l-8.176-8.177c-0.714-0.715-1.875-0.715-2.591,0L2.028,9.583
		c-0.715,0.716-0.715,1.875,0,2.591l3.827,3.825L7.6,14.254c-0.784-0.905-1.259-2.086-1.259-3.377c0-2.848,2.31-5.159,5.159-5.159
		c2.848,0,5.16,2.311,5.16,5.159c0,1.291-0.475,2.472-1.259,3.377c-0.82,0.944-1.978,1.589-3.284,1.745
		c-0.203,0.024-0.408,0.04-0.617,0.04c-0.208,0-0.414-0.015-0.615-0.04c-1.308,0.156-2.465,0.8-3.285,1.747l2.604,2.604
		c0.715,0.716,1.876,0.716,2.591,0l2.605-2.604l1.745-1.747l3.825-3.825C21.688,11.458,21.688,10.299,20.971,9.583z"/>
	<path fill="#7E848F" d="M20.971,19.826l-3.825-3.827L15.4,17.746c0.783,0.905,1.259,2.084,1.259,3.377
		c0,2.848-2.312,5.158-5.16,5.158c-2.85,0-5.159-2.311-5.159-5.158c0-1.293,0.475-2.472,1.259-3.377
		c0.819-0.947,1.977-1.591,3.285-1.747c0.201-0.024,0.407-0.038,0.615-0.038c0.209,0,0.414,0.014,0.617,0.038
		c1.307-0.155,2.464-0.8,3.284-1.745l-2.605-2.605c-0.714-0.716-1.875-0.716-2.591,0L7.6,14.254l-1.745,1.745l-3.827,3.827
		c-0.715,0.716-0.715,1.876,0,2.592l8.176,8.176c0.715,0.716,1.876,0.716,2.591,0l8.176-8.176
		C21.688,21.702,21.688,20.542,20.971,19.826z"/>
</g>
</svg>
